<mxfile host="app.diagrams.net" agent="Mozilla/5.0 (X11; Ubuntu; Linux x86_64; rv:137.0) Gecko/20100101 Firefox/137.0" version="26.2.13">
  <diagram name="Page-1" id="RYwiJerEr7neYNAR1BZN">
    <mxGraphModel dx="764" dy="383" grid="1" gridSize="10" guides="1" tooltips="1" connect="1" arrows="1" fold="1" page="1" pageScale="1" pageWidth="850" pageHeight="1100" math="0" shadow="0">
      <root>
        <mxCell id="0" />
        <mxCell id="1" parent="0" />
        <mxCell id="fW85EFeijCsHItw4bJKT-2" style="edgeStyle=orthogonalEdgeStyle;rounded=0;orthogonalLoop=1;jettySize=auto;html=1;entryX=0.5;entryY=0;entryDx=0;entryDy=0;" edge="1" parent="1" source="fW85EFeijCsHItw4bJKT-1">
          <mxGeometry relative="1" as="geometry">
            <mxPoint x="490" y="350" as="targetPoint" />
          </mxGeometry>
        </mxCell>
        <mxCell id="fW85EFeijCsHItw4bJKT-1" value="&lt;div&gt;User Presses Up or Down button&lt;/div&gt;" style="rounded=0;whiteSpace=wrap;html=1;" vertex="1" parent="1">
          <mxGeometry x="430" y="270" width="120" height="60" as="geometry" />
        </mxCell>
        <mxCell id="fW85EFeijCsHItw4bJKT-10" style="edgeStyle=orthogonalEdgeStyle;rounded=0;orthogonalLoop=1;jettySize=auto;html=1;entryX=0.5;entryY=0;entryDx=0;entryDy=0;" edge="1" parent="1" source="fW85EFeijCsHItw4bJKT-4" target="fW85EFeijCsHItw4bJKT-7">
          <mxGeometry relative="1" as="geometry" />
        </mxCell>
        <mxCell id="fW85EFeijCsHItw4bJKT-4" value="User Inputs employee code" style="rounded=0;whiteSpace=wrap;html=1;" vertex="1" parent="1">
          <mxGeometry x="425" y="20" width="120" height="30" as="geometry" />
        </mxCell>
        <mxCell id="fW85EFeijCsHItw4bJKT-12" style="edgeStyle=orthogonalEdgeStyle;rounded=0;orthogonalLoop=1;jettySize=auto;html=1;" edge="1" parent="1" source="fW85EFeijCsHItw4bJKT-7">
          <mxGeometry relative="1" as="geometry">
            <mxPoint x="640" y="165" as="targetPoint" />
          </mxGeometry>
        </mxCell>
        <mxCell id="fW85EFeijCsHItw4bJKT-14" value="yes" style="edgeLabel;html=1;align=center;verticalAlign=middle;resizable=0;points=[];" vertex="1" connectable="0" parent="fW85EFeijCsHItw4bJKT-12">
          <mxGeometry x="-0.351" relative="1" as="geometry">
            <mxPoint as="offset" />
          </mxGeometry>
        </mxCell>
        <mxCell id="fW85EFeijCsHItw4bJKT-7" value="Did the User input it wrong 3 times?" style="rhombus;whiteSpace=wrap;html=1;" vertex="1" parent="1">
          <mxGeometry x="413.75" y="100" width="142.5" height="130" as="geometry" />
        </mxCell>
        <mxCell id="fW85EFeijCsHItw4bJKT-20" style="edgeStyle=orthogonalEdgeStyle;rounded=0;orthogonalLoop=1;jettySize=auto;html=1;entryX=1;entryY=0.5;entryDx=0;entryDy=0;" edge="1" parent="1" source="fW85EFeijCsHItw4bJKT-13" target="fW85EFeijCsHItw4bJKT-4">
          <mxGeometry relative="1" as="geometry">
            <Array as="points">
              <mxPoint x="690" y="35" />
            </Array>
          </mxGeometry>
        </mxCell>
        <mxCell id="fW85EFeijCsHItw4bJKT-13" value="Alarm turns on and user is locked in until admin access code is given" style="rounded=0;whiteSpace=wrap;html=1;" vertex="1" parent="1">
          <mxGeometry x="640" y="135" width="120" height="60" as="geometry" />
        </mxCell>
        <mxCell id="fW85EFeijCsHItw4bJKT-16" style="edgeStyle=orthogonalEdgeStyle;rounded=0;orthogonalLoop=1;jettySize=auto;html=1;exitX=0.5;exitY=1;exitDx=0;exitDy=0;entryX=0.447;entryY=-0.021;entryDx=0;entryDy=0;entryPerimeter=0;" edge="1" parent="1" source="fW85EFeijCsHItw4bJKT-7" target="fW85EFeijCsHItw4bJKT-1">
          <mxGeometry relative="1" as="geometry" />
        </mxCell>
        <mxCell id="fW85EFeijCsHItw4bJKT-17" value="no" style="edgeLabel;html=1;align=center;verticalAlign=middle;resizable=0;points=[];" vertex="1" connectable="0" parent="fW85EFeijCsHItw4bJKT-16">
          <mxGeometry x="-0.0321" y="1" relative="1" as="geometry">
            <mxPoint as="offset" />
          </mxGeometry>
        </mxCell>
      </root>
    </mxGraphModel>
  </diagram>
</mxfile>
